<svg xmlns="http://www.w3.org/2000/svg" width="36" height="36" viewBox="0 0 36 36" fill="none">
    <path fill-rule="evenodd" clip-rule="evenodd"
          d="M34.4157 17.7079C34.4157 26.9354 26.9354 34.4157 17.7079 34.4157C8.48037 34.4157 1 26.9354 1 17.7079C1 8.48037 8.48037 1 17.7079 1C26.9354 1 34.4157 8.48037 34.4157 17.7079ZM35.4157 17.7079C35.4157 27.4877 27.4877 35.4157 17.7079 35.4157C7.92808 35.4157 0 27.4877 0 17.7079C0 7.92808 7.92808 0 17.7079 0C27.4877 0 35.4157 7.92808 35.4157 17.7079ZM24.1901 11.2262C24.3776 11.4138 24.3776 11.7178 24.1901 11.9053L18.3876 17.7079L18.3876 17.7079L18.3876 17.708L24.1901 23.5105C24.3776 23.698 24.3776 24.002 24.1901 24.1896C24.0026 24.3771 23.6985 24.3771 23.511 24.1896L17.7085 18.3871L11.906 24.1896C11.7185 24.3771 11.4144 24.3771 11.2269 24.1896C11.0394 24.0021 11.0394 23.698 11.2269 23.5105L17.0294 17.708L17.0294 17.7079L17.0294 17.7079L11.2269 11.9054C11.0394 11.7178 11.0394 11.4138 11.2269 11.2263C11.4144 11.0387 11.7185 11.0387 11.906 11.2263L17.7085 17.0288L23.511 11.2262C23.6985 11.0387 24.0026 11.0387 24.1901 11.2262Z"
          fill="white"/>
</svg>
