<svg xmlns="http://www.w3.org/2000/svg" width="14" height="14" viewBox="0 0 14 14" fill="none">
  <path d="M12.8387 5.94036C12.5744 5.51511 12.1168 5.24998 11.6469 5.23598L8.73404 5.22198C8.92829 4.66111 9.02629 4.07661 9.02629 3.48511C9.02629 3.19111 9.00091 2.89011 8.94491 2.56548L8.89066 2.33098C8.73579 1.65898 8.14604 1.18823 7.45479 1.18823C6.64191 1.18823 5.98041 1.84973 5.98041 2.66348C5.98041 2.71073 5.98216 2.75711 5.98654 2.79561C5.94629 4.23848 4.20941 5.72773 3.61879 5.72773C3.61879 5.72773 3.61879 5.72773 3.61791 5.72773L1.45404 5.72861C1.17141 5.72861 0.941285 5.95961 0.941285 6.24223L0.936035 12.2972C0.936035 12.5842 1.18454 12.7934 1.49604 12.8021L3.37204 12.7986L3.44379 12.8117L3.50678 12.803L10.6468 12.8056C10.8979 12.7881 11.1403 12.7102 11.3503 12.5764C11.5778 12.4302 11.7615 12.2246 11.8447 12.0435L11.9322 11.8982C12.4239 10.7275 13.0242 7.14086 13.0487 6.98948L13.0583 6.84423C13.0828 6.52223 13.0067 6.20986 12.8387 5.94036ZM1.81629 6.60798L2.98354 6.60623V11.9289L1.81191 11.9324L1.81629 6.60798ZM11.1525 11.5062L11.0974 11.5937C11.0475 11.6944 10.9714 11.7792 10.8787 11.8387C10.7938 11.893 10.6932 11.9254 10.617 11.9306L3.85853 11.928V6.55986C5.01266 6.33498 6.81166 4.57098 6.86066 2.75273L6.85541 2.66348C6.85541 2.33273 7.12404 2.06323 7.45479 2.06323C7.73566 2.06323 7.97541 2.25398 8.03841 2.52786L8.08741 2.73611C8.13029 2.98723 8.15129 3.23836 8.15129 3.48336C8.15129 3.98036 8.06816 4.47123 7.90366 4.94111L7.50116 6.09523L11.4859 6.09611L11.5804 6.10573C11.7922 6.11361 11.9847 6.22473 12.0958 6.40323C12.1649 6.51436 12.1964 6.64386 12.1859 6.84598C12.1798 6.88098 11.5778 10.4816 11.1525 11.5062Z" fill="#333333"/>
</svg>
