<svg xmlns="http://www.w3.org/2000/svg" width="18" height="18" viewBox="0 0 18 18" fill="none">
  <path d="M13.1592 3.33861C11.9956 2.48179 10.5569 1.97498 9.0001 1.97498C7.44328 1.97498 6.00464 2.48179 4.84101 3.33861H1.9751V7.13179C2.81601 7.33634 3.44101 8.09316 3.44101 8.9977C3.44101 9.90225 2.81601 10.6591 1.9751 10.8636V14.6568H4.84101C6.00464 15.5136 7.44328 16.0204 9.0001 16.0204C10.5569 16.0204 11.9956 15.5136 13.1592 14.6568H16.0251V10.8659C15.1842 10.6613 14.5592 9.90452 14.5592 8.99998C14.5592 8.09543 15.1842 7.33861 16.0251 7.13407V3.33861H13.1592ZM9.0001 2.88407C9.82055 2.88407 10.6024 3.04543 11.316 3.33861H6.68419C7.39783 3.0477 8.17964 2.88407 9.0001 2.88407ZM9.0001 15.1159C8.17964 15.1159 7.39783 14.9545 6.68419 14.6613H11.3183C10.6024 14.9522 9.82055 15.1159 9.0001 15.1159ZM15.116 6.52043C14.241 7.00225 13.6501 7.93179 13.6501 8.99998C13.6501 10.0682 14.2433 10.9977 15.116 11.4795V13.75H2.88419V11.4795C3.75919 10.9977 4.3501 10.0682 4.3501 8.99998C4.3501 7.93179 3.75692 7.00225 2.88419 6.52043V4.24998H15.1137V6.52043H15.116Z" fill="#333333"/>
  <path d="M8.68748 7.36084C8.68748 7.03261 8.8761 6.93451 9.26135 6.93451C9.59343 6.93451 9.87133 7.06562 10.1944 7.32783L10.9559 6.52469C10.6008 6.16536 10.1237 5.92572 9.60145 5.8444V5H8.59719V5.86274C7.73338 6.03418 7.2157 6.59712 7.2157 7.42593C7.2157 8.86077 9.53022 8.95062 9.53022 9.60707C9.53022 9.92705 9.35064 10.0655 8.90218 10.0655C8.52596 10.0655 8.14873 9.93438 7.66416 9.60707L7 10.5578C7.44645 10.9246 8.08252 11.1143 8.59619 11.1712V12H9.60045V11.1189C10.5375 10.9154 11 10.2974 11 9.50805C11.001 8.01637 8.68748 7.98337 8.68748 7.36084Z" fill="#333333"/>
</svg>
