<svg xmlns="http://www.w3.org/2000/svg" width="18" height="18" viewBox="0 0 18 18" fill="none">
  <path d="M6.75 8.4375H3.375C2.44512 8.4375 1.6875 7.67988 1.6875 6.75V3.375C1.6875 2.44512 2.44512 1.6875 3.375 1.6875H6.75C7.67988 1.6875 8.4375 2.44512 8.4375 3.375V6.75C8.4375 7.67988 7.67988 8.4375 6.75 8.4375ZM3.375 2.8125C3.06387 2.8125 2.8125 3.06387 2.8125 3.375V6.75C2.8125 7.06113 3.06387 7.3125 3.375 7.3125H6.75C7.06113 7.3125 7.3125 7.06113 7.3125 6.75V3.375C7.3125 3.06387 7.06113 2.8125 6.75 2.8125H3.375ZM14.625 8.4375H11.25C10.3201 8.4375 9.5625 7.67988 9.5625 6.75V3.375C9.5625 2.44512 10.3201 1.6875 11.25 1.6875H14.625C15.5549 1.6875 16.3125 2.44512 16.3125 3.375V6.75C16.3125 7.67988 15.5549 8.4375 14.625 8.4375ZM11.25 2.8125C10.9389 2.8125 10.6875 3.06387 10.6875 3.375V6.75C10.6875 7.06113 10.9389 7.3125 11.25 7.3125H14.625C14.9361 7.3125 15.1875 7.06113 15.1875 6.75V3.375C15.1875 3.06387 14.9361 2.8125 14.625 2.8125H11.25ZM6.75 16.3125H3.375C2.44512 16.3125 1.6875 15.5549 1.6875 14.625V11.25C1.6875 10.3201 2.44512 9.5625 3.375 9.5625H6.75C7.67988 9.5625 8.4375 10.3201 8.4375 11.25V14.625C8.4375 15.5549 7.67988 16.3125 6.75 16.3125ZM3.375 10.6875C3.06387 10.6875 2.8125 10.9389 2.8125 11.25V14.625C2.8125 14.9361 3.06387 15.1875 3.375 15.1875H6.75C7.06113 15.1875 7.3125 14.9361 7.3125 14.625V11.25C7.3125 10.9389 7.06113 10.6875 6.75 10.6875H3.375ZM14.625 16.3125H11.25C10.3201 16.3125 9.5625 15.5549 9.5625 14.625V11.25C9.5625 10.3201 10.3201 9.5625 11.25 9.5625H14.625C15.5549 9.5625 16.3125 10.3201 16.3125 11.25V14.625C16.3125 15.5549 15.5549 16.3125 14.625 16.3125ZM11.25 10.6875C10.9389 10.6875 10.6875 10.9389 10.6875 11.25V14.625C10.6875 14.9361 10.9389 15.1875 11.25 15.1875H14.625C14.9361 15.1875 15.1875 14.9361 15.1875 14.625V11.25C15.1875 10.9389 14.9361 10.6875 14.625 10.6875H11.25Z" fill="#333333"/>
</svg>
