<svg xmlns="http://www.w3.org/2000/svg" width="16" height="16" viewBox="0 0 16 16" fill="none">
  <path d="M13.7449 8.50802L11.2722 8.50456C11.1388 8.5403 11.0018 8.46119 10.9661 8.32789L10.5933 7.14231L9.42544 12.625C9.42544 12.625 9.40164 12.9142 9.24547 12.9142C9.0893 12.9142 8.82516 12.9185 8.82516 12.9185C8.69611 12.9531 8.56347 12.8766 8.52889 12.7475L7.07981 5.59672L5.9813 10.7629C5.94597 10.8924 5.79473 11.0005 5.66278 10.9658L5.27409 10.9711C5.1378 11.0069 4.99777 10.9275 4.96123 10.7937L4.22858 8.50802H2.24989C2.11191 8.50802 2 8.39616 2 8.25812V7.75834C2 7.62036 2.11191 7.50845 2.24989 7.50845L4.70972 7.50039C4.85917 7.49564 4.98605 7.5127 5.02258 7.6465L5.40361 8.83544L6.47614 3.22751C6.47614 3.22751 6.52927 3.0573 6.70109 3.0573C6.87287 3.0573 7.23402 3.0503 7.23402 3.0503C7.36311 3.01572 7.49575 3.09228 7.53034 3.22137L8.96647 10.3171L10.0282 5.2205C10.0627 5.09141 10.1642 4.98361 10.2932 5.01819L10.72 5.01298C10.8533 4.97725 10.9904 5.05636 11.0261 5.1897L11.7552 7.50845H13.7449C13.8829 7.50845 13.9948 7.62036 13.9948 7.75834V8.25812C13.9948 8.39617 13.8829 8.50802 13.7449 8.50802Z" fill="#333333"/>
</svg>
