<svg xmlns="http://www.w3.org/2000/svg" width="16" height="16" viewBox="0 0 16 16" fill="none">
  <g clip-path="url(#clip0_4208_22120)">
    <path d="M8.0047 0.63269C9.94698 0.649704 11.8034 1.4354 13.1678 2.81784C14.5322 4.20029 15.2935 6.06691 15.285 8.00924C15.2765 9.95158 14.4989 11.8115 13.1224 13.1819C11.746 14.5523 9.88272 15.3217 7.94037 15.3217C5.99802 15.3217 4.13475 14.5523 2.75829 13.1819C1.38184 11.8115 0.60428 9.95158 0.595774 8.00924C0.587267 6.06691 1.3485 4.20029 2.7129 2.81784C4.0773 1.4354 5.93376 0.649704 7.87604 0.63269H8.0047ZM11.0714 2.55669L11.0754 2.54802C11.0207 2.67002 10.9667 2.78736 10.9114 2.90202L10.8 3.12536C10.1847 4.32536 9.49937 5.03736 8.56737 5.03736C8.3982 5.03221 8.22893 5.04382 8.06204 5.07202L7.99537 5.08802V5.09269C7.98673 5.12529 7.98469 5.15929 7.98937 5.19269L7.9967 5.25936L8.01137 5.34402L8.03337 5.44536L8.04804 5.50269L8.08404 5.63002L8.10537 5.70069L8.15604 5.85469C8.17537 5.90936 8.19537 5.96669 8.21804 6.02669C8.39906 6.43091 8.44637 6.88236 8.35309 7.31533C8.2598 7.7483 8.03079 8.14021 7.69937 8.43402C7.54958 8.5736 7.36729 8.67355 7.16907 8.7248C6.97085 8.77606 6.76296 8.77699 6.56429 8.72752C6.36561 8.67805 6.18244 8.57975 6.0314 8.44152C5.88035 8.3033 5.76622 8.12954 5.69937 7.93602L5.59204 7.66602L5.50004 7.44202L5.44537 7.31602L5.38404 7.18269L5.3287 7.07469L5.30804 7.03802L5.26804 6.97136C5.24513 6.93039 5.21409 6.89454 5.17684 6.866C5.13958 6.83745 5.09689 6.81682 5.05137 6.80536L4.9947 6.79736H4.92804L4.6227 6.80136H4.43004C4.09297 6.82683 3.7575 6.73471 3.4807 6.54069C3.27288 6.36058 3.13487 6.11323 3.09077 5.84177C3.04666 5.57032 3.09926 5.292 3.23937 5.05536L3.27337 4.97269C3.36724 4.8208 3.40976 4.64273 3.39463 4.46481C3.3795 4.28689 3.30754 4.11856 3.18937 3.98469C2.33059 5.00648 1.81978 6.27537 1.73108 7.60718C1.64239 8.93898 1.98042 10.2644 2.69613 11.391C3.41183 12.5177 4.46795 13.387 5.71121 13.8726C6.95446 14.3583 8.32015 14.4352 9.61004 14.092C9.6495 13.8462 9.61323 13.5942 9.50606 13.3695C9.39889 13.1448 9.22589 12.9581 9.01004 12.834L8.9387 12.7827C7.4387 11.7387 7.37137 10.0834 8.5387 9.37469C8.92204 9.08822 9.39431 8.94649 9.87204 8.97455C10.3498 9.00261 10.8022 9.19865 11.1494 9.52802L11.216 9.59469C11.2946 9.69671 11.3975 9.7774 11.5154 9.82936L11.55 9.83669H11.634L11.7227 9.82736L11.9227 9.80069C12.06 9.78136 12.164 9.76936 12.2807 9.76136C12.5787 9.72217 12.8813 9.78215 13.1418 9.93203C13.4023 10.0819 13.6062 10.3134 13.722 10.5907C14.361 9.16127 14.4432 7.54478 13.9525 6.05793C13.4618 4.57108 12.4336 3.32103 11.0694 2.55269L11.0714 2.55669ZM9.13137 10.3527C8.72337 10.6014 8.73604 11.2147 9.51804 11.7954L9.59337 11.8494C9.91208 12.0448 10.1828 12.3093 10.3855 12.6234C10.5883 12.9375 10.7179 13.2931 10.7647 13.664C11.6284 13.2385 12.3829 12.6204 12.97 11.8574L12.9507 11.7787L12.9087 11.6227L12.8887 11.552L12.8494 11.424L12.8294 11.366L12.7907 11.2627C12.6674 10.9614 12.5434 10.892 12.3614 10.9054L12.2587 10.914L12.1467 10.9274L11.8634 10.966L11.73 10.9814L11.62 10.988C11.5693 10.99 11.5185 10.988 11.468 10.982L11.3667 10.9674L11.344 10.9634C10.9685 10.882 10.6314 10.6763 10.3874 10.3794C10.0714 10.042 9.6487 10.0394 9.13537 10.3514L9.13137 10.3527ZM7.99804 1.75269C6.54183 1.75063 5.1306 2.25711 4.00804 3.18469C4.27672 3.46354 4.45501 3.81697 4.51959 4.19877C4.58418 4.58058 4.53206 4.97299 4.37004 5.32469L4.33204 5.41936C4.30328 5.48566 4.27901 5.55381 4.25937 5.62336L4.25337 5.64602L4.3467 5.65336L4.42537 5.65736H4.9267C5.21992 5.63041 5.51392 5.69988 5.76407 5.85521C6.01421 6.01055 6.20684 6.24326 6.3127 6.51802L6.38937 6.66602L6.4667 6.82869L6.54604 7.00602L6.62804 7.19936L6.75737 7.51936C6.8067 7.64536 6.84804 7.65269 6.98404 7.54469C7.1253 7.3997 7.21715 7.21379 7.24648 7.0135C7.27582 6.8132 7.24113 6.60877 7.14737 6.42936C6.79404 5.48669 6.74204 4.85936 7.0807 4.40336C7.23659 4.21884 7.43615 4.07624 7.66123 3.98856C7.88631 3.90088 8.12975 3.87091 8.36937 3.90136H8.56937C8.98804 3.90136 9.53404 3.19402 10.032 2.09602C9.37688 1.87186 8.68915 1.75765 7.9967 1.75802L7.99804 1.75269Z" fill="#333333"/>
  </g>
  <defs>
    <clipPath id="clip0_4208_22120">
      <rect width="16" height="16" fill="white"/>
    </clipPath>
  </defs>
</svg>
