<svg xmlns="http://www.w3.org/2000/svg" width="18" height="18" viewBox="0 0 18 18" fill="none">
  <path d="M8.51823 7.59268C8.51823 7.18993 8.72973 7.06955 9.16173 7.06955C9.5341 7.06955 9.84573 7.23043 10.208 7.55218L11.0619 6.56668C10.6637 6.12576 10.1287 5.83171 9.5431 5.73193V4.6958H8.41698V5.75443C7.44835 5.9648 6.86785 6.65555 6.86785 7.67255C6.86785 9.43318 9.46323 9.54343 9.46323 10.3489C9.46323 10.7416 9.26185 10.9114 8.75898 10.9114C8.3371 10.9114 7.9141 10.7506 7.37073 10.3489L6.62598 11.5156C7.1266 11.9656 7.83985 12.1984 8.41585 12.2682V13.2852H9.54198V12.204C10.5927 11.9543 11.1114 11.196 11.1114 10.2274C11.1125 8.39705 8.51823 8.35655 8.51823 7.59268Z" fill="#333333"/>
  <path d="M9.0001 1.63123C4.9366 1.63123 1.63135 4.9376 1.63135 8.99998C1.63135 13.0624 4.9366 16.3687 9.0001 16.3687C13.0636 16.3687 16.3688 13.0635 16.3688 8.99998C16.3688 4.93648 13.0636 1.63123 9.0001 1.63123ZM9.0001 15.2437C7.34461 15.2422 5.75735 14.5839 4.58674 13.4133C3.41614 12.2427 2.75784 10.6555 2.75635 8.99998C2.75635 5.55748 5.5576 2.75623 9.0001 2.75623C12.4426 2.75623 15.2438 5.55748 15.2438 8.99998C15.2438 12.4436 12.4426 15.2437 9.0001 15.2437Z" fill="#333333"/>
</svg>
