<svg xmlns="http://www.w3.org/2000/svg" width="18" height="18" viewBox="0 0 18 18" fill="none">
  <path d="M15.618 13.3893H13.2959C13.0182 13.3893 12.7932 13.1643 12.7932 12.8865L12.7879 6.96624C12.7562 4.89553 11.074 3.31526 8.9998 3.30471C6.92559 3.31526 5.24336 4.89553 5.20996 6.96624L5.20645 12.1026C5.20645 12.1026 5.85508 14.342 7.4002 14.0819C7.51797 13.6899 7.93281 13.5422 8.2 13.5422H9.82773C10.3832 13.5422 10.8332 13.9922 10.8332 14.5477V14.8623C10.8332 15.4178 10.3832 15.8678 9.82773 15.8678H8.33008C7.90469 15.8678 7.54258 15.6006 7.39492 15.2262C7.37031 15.2121 7.16992 15.2297 6.97305 15.1875C5.44902 14.6426 4.78105 13.3823 4.78105 13.3823C4.75469 13.3875 4.72832 13.391 4.70195 13.391H2.38164C2.10391 13.391 1.87891 13.166 1.87891 12.8883V7.7344C1.87891 7.45667 2.10391 7.23166 2.38164 7.23166H4.04102C4.04102 6.80627 4.03926 6.96448 4.03926 6.96448C4.09902 2.14983 8.91719 2.13401 8.91719 2.13401C8.95586 2.13225 9.04551 2.13225 9.08242 2.13401C9.08242 2.13401 13.9006 2.15159 13.9604 6.96448C13.9604 6.96448 13.9604 6.80452 13.9586 7.23166H15.618C15.8957 7.23166 16.1207 7.45667 16.1207 7.7344V12.8865C16.1207 13.1643 15.8957 13.3893 15.618 13.3893ZM4.14473 8.70471C4.14473 8.5342 4.05332 8.39534 3.94082 8.39534H3.08301C2.97051 8.39534 2.8791 8.5342 2.8791 8.70471V11.8776C2.8791 12.0498 2.97051 12.1869 3.08301 12.1869H3.94082C4.05332 12.1869 4.14473 12.0481 4.14473 11.8776V8.70471ZM15.1205 8.70471C15.1205 8.5342 15.0291 8.39534 14.9166 8.39534H14.0605C13.948 8.39534 13.8549 8.5342 13.8549 8.70471V11.8776C13.8549 12.0498 13.948 12.1869 14.0605 12.1869H14.9166C15.0291 12.1869 15.1205 12.0481 15.1205 11.8776V8.70471Z" fill="#333333"/>
</svg>
