<svg xmlns="http://www.w3.org/2000/svg" width="16" height="16" viewBox="0 0 16 16" fill="none">
  <path d="M12.7998 9.13655C12.8476 9.08873 12.9043 9.0508 12.9667 9.02492C13.0291 8.99904 13.0961 8.98572 13.1636 8.98572C13.2312 8.98572 13.2982 8.99904 13.3606 9.02492C13.423 9.0508 13.4797 9.08873 13.5275 9.13655L14.9966 10.6057C15.093 10.7021 15.1471 10.8328 15.1471 10.9691C15.1471 11.1054 15.093 11.2361 14.9966 11.3326L11.3229 15.0063C11.2266 15.1027 11.0959 15.157 10.9595 15.1571H9.49036C9.42282 15.1571 9.35595 15.1438 9.29355 15.118C9.23116 15.0921 9.17446 15.0542 9.12671 15.0065C9.07895 14.9587 9.04107 14.902 9.01522 14.8396C8.98938 14.7772 8.97608 14.7104 8.97608 14.6428V13.1737C8.97591 13.1061 8.98907 13.0391 9.01481 12.9766C9.04055 12.9141 9.07836 12.8573 9.12608 12.8094L12.7998 9.13655ZM10.0046 13.3863V14.1286H10.7461L13.9055 10.9691L13.1632 10.2268L10.0046 13.3863Z" fill="#333333"/>
  <path d="M3.74155 0.845459C3.04813 0.845459 2.48584 1.40774 2.48584 2.10117V13.8989C2.48584 14.5932 3.04813 15.1546 3.74155 15.1546H7.67413C7.83326 15.1546 7.98587 15.0914 8.09839 14.9789C8.21091 14.8663 8.27413 14.7137 8.27413 14.5546C8.27413 14.3955 8.21091 14.2429 8.09839 14.1303C7.98587 14.0178 7.83326 13.9546 7.67413 13.9546H3.74155C3.72678 13.9546 3.71261 13.9487 3.70216 13.9383C3.69171 13.9278 3.68584 13.9137 3.68584 13.8989V2.10117C3.68584 2.07032 3.71155 2.04546 3.74155 2.04546H9.69613V4.72317C9.69613 4.8823 9.75934 5.03492 9.87186 5.14744C9.98438 5.25996 10.137 5.32317 10.2961 5.32317H12.9738V7.67174C12.9738 7.75055 12.9893 7.82858 13.0195 7.90139C13.0496 7.9742 13.0938 8.04035 13.1495 8.09608C13.2053 8.15181 13.2714 8.19601 13.3442 8.22617C13.417 8.25633 13.495 8.27185 13.5738 8.27185C13.6526 8.27185 13.7307 8.25633 13.8035 8.22617C13.8763 8.19601 13.9424 8.15181 13.9981 8.09608C14.0539 8.04035 14.0981 7.9742 14.1282 7.90139C14.1583 7.82858 14.1739 7.75055 14.1738 7.67174V4.73175V4.72317C14.1738 4.56546 14.1138 4.42232 14.0144 4.31517L11.0701 1.04432C11.0139 0.981791 10.9452 0.931778 10.8684 0.89752C10.7916 0.863263 10.7085 0.845525 10.6244 0.845459H3.74155ZM10.8961 2.64546L12.2264 4.12317H10.8961V2.6446V2.64546Z" fill="#333333"/>
</svg>
