<svg t="1717091668703" class="icon" viewBox="0 0 1024 1024" version="1.1" xmlns="http://www.w3.org/2000/svg" p-id="23461" xmlns:xlink="http://www.w3.org/1999/xlink" width="200" height="200"><path d="M85.333333 213.333333m85.333334 0l682.666666 0q85.333333 0 85.333334 85.333334l0 426.666666q0 85.333333-85.333334 85.333334l-682.666666 0q-85.333333 0-85.333334-85.333334l0-426.666666q0-85.333333 85.333334-85.333334Z" opacity=".6" p-id="23462"></path><path d="M85.333333 341.333333h853.333334v128H85.333333z" p-id="23463"></path><path d="M682.666667 597.333333m42.666666 0l85.333334 0q42.666667 0 42.666666 42.666667l0 0q0 42.666667-42.666666 42.666667l-85.333334 0q-42.666667 0-42.666666-42.666667l0 0q0-42.666667 42.666666-42.666667Z" opacity=".6" p-id="23464"></path></svg>