<svg t="1717092753268" class="icon" viewBox="0 0 1024 1024" version="1.1" xmlns="http://www.w3.org/2000/svg" p-id="45673" xmlns:xlink="http://www.w3.org/1999/xlink" width="200" height="200"><path d="M794.538667 416h5.461333a96 96 0 1 1 0 192h-2.773333a20.821333 20.821333 0 0 0-19.029334 12.586667 20.821333 20.821333 0 0 0 3.797334 23.04l1.92 1.877333a96 96 0 1 1-135.808 135.850667l-1.706667-1.706667a20.906667 20.906667 0 0 0-23.253333-4.010667 20.736 20.736 0 0 0-12.586667 18.944v5.418667a96 96 0 1 1-192 0 22.357333 22.357333 0 0 0-15.488-21.930667 20.693333 20.693333 0 0 0-22.698667 3.925334l-1.877333 1.92a96 96 0 1 1-135.850667-135.808l1.706667-1.706667a20.906667 20.906667 0 0 0 4.010667-23.253333 20.736 20.736 0 0 0-18.901334-12.586667H224a96 96 0 1 1 0-192 22.357333 22.357333 0 0 0 21.930667-15.488 20.693333 20.693333 0 0 0-3.925334-22.698667l-1.92-1.877333A96 96 0 1 1 375.893333 242.645333l1.706667 1.706667c6.058667 5.930667 15.146667 7.552 22.912 4.138667l4.608-0.981334a20.736 20.736 0 0 0 10.88-18.048V224a96 96 0 1 1 192 0v2.773333c0 8.277333 4.992 15.786667 12.928 19.157334 7.765333 3.413333 16.853333 1.792 22.698667-3.925334l1.877333-1.92a96 96 0 1 1 135.850667 135.808l-1.706667 1.706667a20.821333 20.821333 0 0 0-4.138667 22.912l0.981334 4.608a20.736 20.736 0 0 0 18.048 10.88z" opacity=".3" p-id="45674"></path><path d="M512 640a128 128 0 1 0 0-256 128 128 0 0 0 0 256z" p-id="45675"></path></svg>