<svg t="1717092021256" class="icon" viewBox="0 0 1024 1024" version="1.1" xmlns="http://www.w3.org/2000/svg" p-id="23755" xmlns:xlink="http://www.w3.org/1999/xlink" width="200" height="200"><path d="M149.333333 896h725.333334a64 64 0 0 0 64-64v-469.333333A64 64 0 0 0 874.666667 298.666667H426.666667L317.44 189.44A64 64 0 0 0 272.128 170.666667H149.333333A64 64 0 0 0 85.333333 234.666667v597.333333A64 64 0 0 0 149.333333 896z" opacity=".6" p-id="23756"></path><path d="M464 714.666667a40.362667 40.362667 0 0 1-28.586667-12.288l-81.834666-81.749334a39.509333 39.509333 0 0 1 0-57.258666c16.384-16.341333 42.965333-16.341333 57.258666 0l53.162667 53.162666 134.912-134.912a39.509333 39.509333 0 0 1 57.258667 0 39.509333 39.509333 0 0 1 0 57.216l-163.541334 163.541334a40.362667 40.362667 0 0 1-28.629333 12.288z" p-id="23757"></path></svg>