<?xml version="1.0" encoding="utf-8"?>
<!-- Generator: Adobe Illustrator 22.1.0, SVG Export Plug-In . SVG Version: 6.00 Build 0)  -->
<svg version="1.1" id="图层_1" xmlns="http://www.w3.org/2000/svg" xmlns:xlink="http://www.w3.org/1999/xlink" x="0px" y="0px"
	 viewBox="0 0 200 200" style="enable-background:new 0 0 200 200;" xml:space="preserve">
<path d="M44.9,137.3c0.1,3.8,0.6,7.2,1.8,10.3c1.1,3.1,2.7,5.8,4.8,8c2.1,2.2,4.7,3.9,7.8,5.1c3.1,1.2,6.8,1.8,11,1.8
	c3.4,0,6.7-0.5,9.8-1.5c3.1-1,5.8-2.5,8.2-4.4c4.9-3.9,7.8-9.9,7.7-16.2c0-4.7-1.2-8.7-3.5-11.9c-2.3-3.2-5.7-5.5-9.7-6.1v-0.2
	c3.5-1.2,6.1-3.2,7.7-5.9c1.6-2.7,2.5-5.9,2.5-9.5c0-3.2-0.7-6-2-8.4c-1.3-2.4-3-4.4-5.2-6c-2.2-1.6-4.7-2.8-7.3-3.6
	c-2.7-0.8-5.5-1.2-8.3-1.2c-3.7,0-6.9,0.6-9.8,1.9c-2.8,1.2-5.3,2.9-7.4,5.2c-2.1,2.3-3.7,4.9-4.8,7.8c-1.2,3-1.8,6.2-2,9.7H58
	c-0.1-1.8,0.1-3.7,0.6-5.4c0.5-1.8,1.2-3.3,2.2-4.7c1-1.4,2.3-2.6,3.8-3.4c1.7-0.9,3.5-1.3,5.4-1.2c3.3,0,6,0.9,8.1,2.8
	c2.1,1.9,3.3,4.6,3.1,7.4c0.1,1.9-0.4,3.9-1.4,5.6c-0.9,1.5-2.2,2.7-3.7,3.6c-1.6,0.9-3.3,1.5-5.2,1.8c-1.9,0.4-3.9,0.5-5.8,0.4v8.8
	c2.3-0.1,4.6,0,6.9,0.2c2.2,0.2,4.2,0.7,6,1.6c1.8,0.9,3.2,2.1,4.3,3.8c1.1,1.6,1.6,3.9,1.6,6.7c0,4.1-1.3,7.3-4,9.6
	s-5.9,3.4-9.9,3.4c-4.6,0-8.1-1.5-10.4-4.4c-2.3-2.9-3.4-6.6-3.2-11L44.9,137.3L44.9,137.3z M107.5,149.8c1.8,3.7,4.4,6.7,7.6,9.1
	s7.5,3.6,12.7,3.6c5.2,0,9.4-1.2,12.6-3.6c3.3-2.4,5.9-5.5,7.7-9.1c1.9-3.8,3.1-7.9,3.7-12.1c0.7-4.4,1-8.7,1-12.8
	c0-4.1-0.3-8.4-1-12.8c-0.6-4.2-1.8-8.3-3.7-12.1c-1.8-3.6-4.4-6.7-7.7-9.1c-3.3-2.4-7.5-3.6-12.6-3.6c-5.2,0-9.4,1.2-12.7,3.6
	c-3.3,2.4-5.9,5.5-7.6,9.1c-1.8,3.7-3.1,7.7-3.7,12.1c-0.6,4.2-1,8.5-1,12.8c0,4.1,0.3,8.4,1,12.8
	C104.5,142.1,105.7,146.1,107.5,149.8L107.5,149.8z M115.2,114.2c0.3-3,1-6,2.1-8.8c1-2.5,2.3-4.6,4-6c1.8-1.5,4.1-2.3,6.5-2.2
	c2.5,0,4.7,0.7,6.4,2.2c1.7,1.5,3.1,3.5,4.1,6s1.7,5.5,2.1,8.8c0.4,3.3,0.6,6.9,0.6,10.7c0,3.8-0.2,7.4-0.6,10.7c-0.3,3-1,6-2.1,8.8
	c-1,2.5-2.4,4.5-4.1,6c-1.8,1.5-4.1,2.3-6.4,2.2c-2.4,0.1-4.7-0.7-6.5-2.2c-1.8-1.7-3.2-3.7-4-6c-1.1-2.8-1.8-5.8-2.1-8.8
	c-0.4-3.6-0.6-7.1-0.6-10.7C114.6,121.1,114.8,117.5,115.2,114.2L115.2,114.2z"/>
<path d="M168.3,18.5h-12.5V8.6c0-1.4-1.2-2.6-2.7-2.6H146c-1.4,0-2.6,1.1-2.7,2.5c0,0,0,0,0,0v9.9H55.9V8.6c0-1.4-1.2-2.6-2.6-2.6
	H46c-1.4,0-2.6,1.1-2.7,2.5c0,0,0,0,0,0v9.9H30.9c-13.8,0-25,11.2-25,24.9c0,0,0,0,0,0v125c0,13.8,11.2,25,25,25h137.4
	c13.8,0,25-11.2,25-24.9c0,0,0,0,0,0v-125C193.3,29.7,182.1,18.5,168.3,18.5L168.3,18.5z M180.8,168.4c0,6.9-5.6,12.5-12.5,12.5
	H30.9c-6.9,0-12.5-5.6-12.5-12.5v-100h162.4L180.8,168.4L180.8,168.4z M180.8,56H18.4V43.5C18.4,36.6,24,31,30.9,31h12.5v9.9
	c0,1.4,1.2,2.6,2.6,2.6h7.2c1.4,0,2.6-1.1,2.6-2.5c0,0,0,0,0-0.1V31h87.5v9.9c0,1.4,1.2,2.6,2.6,2.6h7.2c1.4,0,2.6-1.1,2.6-2.5
	c0,0,0,0,0-0.1V31h12.5c6.9,0,12.5,5.6,12.5,12.5V56L180.8,56z"/>
</svg>
