<svg t="1717604738294" class="icon" viewBox="0 0 1024 1024" version="1.1" xmlns="http://www.w3.org/2000/svg" p-id="3448" xmlns:xlink="http://www.w3.org/1999/xlink" width="200" height="200"><path d="M592.384 111.889067L288.2048 324.266667H170.666667a68.266667 68.266667 0 0 0-68.266667 68.266666v238.933334a68.266667 68.266667 0 0 0 68.266667 68.266666h117.538133L592.384 912.110933a68.266667 68.266667 0 0 0 107.349333-55.978666V167.867733a68.266667 68.266667 0 0 0-107.349333-55.978666zM327.287467 380.245333L631.466667 167.867733v688.264534L327.287467 643.754667a68.266667 68.266667 0 0 0-39.082667-12.288H170.666667V392.533333h117.538133a68.266667 68.266667 0 0 0 39.082667-12.288z" p-id="3449"></path><path d="M895.249067 290.133333c35.84 61.474133 55.842133 141.277867 55.842133 225.6896 0 77.533867-16.878933 151.210667-47.4624 210.432l-3.754667 7.031467-59.904-32.7168c27.2896-49.988267 42.837333-115.2 42.837334-184.746667 0-69.802667-15.701333-135.2192-43.0592-185.156266l-3.4816-6.144L895.249067 290.133333z" p-id="3450"></path></svg>