<?xml version="1.0" encoding="utf-8"?>
<!-- Generator: Adobe Illustrator 22.1.0, SVG Export Plug-In . SVG Version: 6.00 Build 0)  -->
<svg version="1.1" id="图层_1" xmlns="http://www.w3.org/2000/svg" xmlns:xlink="http://www.w3.org/1999/xlink" x="0px" y="0px"
	 viewBox="0 0 200 200" style="enable-background:new 0 0 200 200;" xml:space="preserve">
<path d="M188.2,90.1c6.6-6.4,3-17.7-6.1-19.1l-44.9-6.5c-3.6-0.6-6.8-2.8-8.4-6.1l-20.2-40.7c-4.1-8.3-15.9-8.3-20,0L68.4,58.5
	c-1.6,3.3-4.7,5.6-8.4,6.1l-44.9,6.5C5.9,72.4,2.2,83.7,8.9,90.2L41.5,122c2.6,2.6,3.8,6.2,3.2,9.9l-7.7,44.8
	c-1.6,9.1,8,16.1,16.2,11.7l40.2-21.1c3.3-1.7,7.2-1.7,10.4,0l40.2,21.1c8.2,4.3,17.8-2.6,16.2-11.7l-7.7-44.8
	c-0.7-3.6,0.6-7.4,3.2-9.9L188.2,90.1L188.2,90.1z M145.2,111.2c-6.1,6-8.9,14.6-7.5,23.1l6.4,37.3L110.6,154c-3.7-2-7.9-3-12.1-3
	c-4.2,0-8.4,1-12.1,3l-33.5,17.6l6.4-37.3c1.5-8.5-1.4-17-7.4-23.1L24.6,84.7l37.5-5.5C70.6,78,78,72.6,81.8,65l16.8-34l16.8,34
	c3.8,7.7,11.2,13,19.6,14.2l37.5,5.5L145.2,111.2z"/>
<path d="M111.5,136.1H85.4c-4.1,0-7.4-3.4-7.4-7.4c0-4.1,3.4-7.4,7.4-7.4h26.1c4.1,0,7.4,3.4,7.4,7.4
	C118.9,132.8,115.6,136.1,111.5,136.1L111.5,136.1z"/>
</svg>
