<svg t="1717092582275" class="icon" viewBox="0 0 1024 1024" version="1.1" xmlns="http://www.w3.org/2000/svg" p-id="24193" xmlns:xlink="http://www.w3.org/1999/xlink" width="200" height="200"><path d="M249.898667 85.333333h336.213333a64 64 0 0 1 41.301333 15.146667l203.264 171.904A64 64 0 0 1 853.333333 321.237333v535.637334c0 76.373333-0.853333 81.792-79.232 81.792H249.898667C171.52 938.666667 170.666667 933.290667 170.666667 856.874667V167.125333C170.666667 90.752 171.52 85.333333 249.898667 85.333333z" opacity=".6" p-id="24194"></path><path d="M256 469.333333m42.666667 0l298.666666 0q42.666667 0 42.666667 42.666667l0 0q0 42.666667-42.666667 42.666667l-298.666666 0q-42.666667 0-42.666667-42.666667l0 0q0-42.666667 42.666667-42.666667Z" p-id="24195"></path><path d="M256 640m42.666667 0l128 0q42.666667 0 42.666666 42.666667l0 0q0 42.666667-42.666666 42.666666l-128 0q-42.666667 0-42.666667-42.666666l0 0q0-42.666667 42.666667-42.666667Z" p-id="24196"></path></svg>