<?xml version="1.0" standalone="no"?><!DOCTYPE svg PUBLIC "-//W3C//DTD SVG 1.1//EN" "http://www.w3.org/Graphics/SVG/1.1/DTD/svg11.dtd"><svg t="1717601872111" class="icon" viewBox="0 0 1024 1024" version="1.1" xmlns="http://www.w3.org/2000/svg" p-id="20885" xmlns:xlink="http://www.w3.org/1999/xlink" width="200" height="200"><path d="M128 682.666667h768a170.666667 170.666667 0 0 1-170.666667 170.666666H298.666667a170.666667 170.666667 0 0 1-170.666667-170.666666z m0-213.333334h768v42.666667a85.333333 85.333333 0 0 1-85.333333 85.333333H213.333333a85.333333 85.333333 0 0 1-85.333333-85.333333v-42.666667z" p-id="20886"></path><path d="M128 213.333333h768v85.333334a85.333333 85.333333 0 0 1-85.333333 85.333333H213.333333a85.333333 85.333333 0 0 1-85.333333-85.333333V213.333333z" opacity=".3" p-id="20887"></path></svg>