<?xml version="1.0" standalone="no"?><!DOCTYPE svg PUBLIC "-//W3C//DTD SVG 1.1//EN" "http://www.w3.org/Graphics/SVG/1.1/DTD/svg11.dtd"><svg t="1728043808356" class="icon" viewBox="0 0 1024 1024" version="1.1" xmlns="http://www.w3.org/2000/svg" p-id="23332" xmlns:xlink="http://www.w3.org/1999/xlink" width="200" height="200"><path d="M249.173333 341.333333h525.653334a85.333333 85.333333 0 0 1 85.034666 78.250667l28.416 341.333333A85.333333 85.333333 0 0 1 803.242667 853.333333H220.757333a85.333333 85.333333 0 0 1-85.034666-92.416l28.416-341.333333A85.333333 85.333333 0 0 1 249.173333 341.333333z m198.826667 85.333334a21.333333 21.333333 0 0 0-21.333333 21.333333v42.666667a21.333333 21.333333 0 0 0 21.333333 21.333333h128a21.333333 21.333333 0 0 0 21.333333-21.333333v-42.666667a21.333333 21.333333 0 0 0-21.333333-21.333333h-128z" p-id="23333"></path><path d="M426.666667 341.333333H341.333333V298.666667a128 128 0 0 1 128-128h85.333334a128 128 0 0 1 128 128v42.666666h-85.333334V298.666667a42.666667 42.666667 0 0 0-42.666666-42.666667h-85.333334a42.666667 42.666667 0 0 0-42.666666 42.666667v42.666666z" opacity=".6" p-id="23334"></path></svg>