<?xml version="1.0" standalone="no"?><!DOCTYPE svg PUBLIC "-//W3C//DTD SVG 1.1//EN" "http://www.w3.org/Graphics/SVG/1.1/DTD/svg11.dtd"><svg t="1717601133935" class="icon" viewBox="0 0 1024 1024" version="1.1" xmlns="http://www.w3.org/2000/svg" p-id="22007" xmlns:xlink="http://www.w3.org/1999/xlink" width="200" height="200"><path d="M512 854.272l-150.485333 72.832-68.437334-152.533333-162.090666-40.917334 45.610666-160.853333-97.834666-135.509333 138.282666-93.866667 12.16-166.741333 166.314667 16.981333L512 73.770667l116.48 119.893333 166.314667-16.981333 12.16 166.698666 138.282666 93.909334-97.834666 135.552 45.610666 160.810666-162.133333 40.96-68.394667 152.490667z" opacity=".3" p-id="22008"></path><path d="M601.173333 367.061333L356.693333 627.2 414.293333 684.8l244.394667-260.224z" p-id="22009"></path><path d="M463.104 391.466667a73.301333 73.301333 0 1 1-146.56 0.085333 73.301333 73.301333 0 0 1 146.56-0.085333M634.197333 709.205333a73.344 73.344 0 1 1 0-146.645333 73.344 73.344 0 0 1 0 146.645333z" p-id="22010"></path></svg>