<svg t="1717093831767" class="icon" viewBox="0 0 1024 1024" version="1.1" xmlns="http://www.w3.org/2000/svg" p-id="46698" xmlns:xlink="http://www.w3.org/1999/xlink" width="200" height="200"><path d="M298.666667 128h426.666666a170.666667 170.666667 0 1 1 0 341.333333H298.666667a170.666667 170.666667 0 1 1 0-341.333333z m0 256a85.333333 85.333333 0 1 0 0-170.666667 85.333333 85.333333 0 0 0 0 170.666667z" p-id="46699"></path><path d="M298.666667 554.666667h426.666666a170.666667 170.666667 0 1 1 0 341.333333H298.666667a170.666667 170.666667 0 1 1 0-341.333333z m426.666666 256a85.333333 85.333333 0 1 0 0-170.666667 85.333333 85.333333 0 0 0 0 170.666667z" opacity=".6" p-id="46700"></path></svg>