<svg t="1717092027745" class="icon" viewBox="0 0 1024 1024" version="1.1" xmlns="http://www.w3.org/2000/svg" p-id="23901" xmlns:xlink="http://www.w3.org/1999/xlink" width="200" height="200"><path d="M149.333333 896h725.333334a64 64 0 0 0 64-64v-469.333333A64 64 0 0 0 874.666667 298.666667H426.666667L317.44 189.44A64 64 0 0 0 272.128 170.666667H149.333333A64 64 0 0 0 85.333333 234.666667v597.333333A64 64 0 0 0 149.333333 896z" opacity=".6" p-id="23902"></path><path d="M368.512 702.421333A149.333333 149.333333 0 1 1 595.84 554.666667H640a85.333333 85.333333 0 1 1 0 170.666666h-213.333333a85.034667 85.034667 0 0 1-58.154667-22.912z" p-id="23903"></path></svg>