<?xml version="1.0" standalone="no"?><!DOCTYPE svg PUBLIC "-//W3C//DTD SVG 1.1//EN" "http://www.w3.org/Graphics/SVG/1.1/DTD/svg11.dtd"><svg t="1728043690786" class="icon" viewBox="0 0 1024 1024" version="1.1" xmlns="http://www.w3.org/2000/svg" p-id="23189" xmlns:xlink="http://www.w3.org/1999/xlink" width="200" height="200"><path d="M554.069333 376.917333c0.426667 2.304 0.597333 4.693333 0.597334 7.082667v85.333333h170.666666a85.333333 85.333333 0 0 1 85.333334 85.333334v128H213.333333v-128a85.333333 85.333333 0 0 1 85.333334-85.333334h170.666666V384c0-2.432 0.213333-4.778667 0.597334-7.082667A128.042667 128.042667 0 0 1 512 128a128 128 0 0 1 42.069333 248.917333z" p-id="23190"></path><path d="M213.333333 768m42.666667 0l512 0q42.666667 0 42.666667 42.666667l0 0q0 42.666667-42.666667 42.666666l-512 0q-42.666667 0-42.666667-42.666666l0 0q0-42.666667 42.666667-42.666667Z" opacity=".3" p-id="23191"></path></svg>