<svg t="1717093720345" class="icon" viewBox="0 0 1024 1024" version="1.1" xmlns="http://www.w3.org/2000/svg" p-id="46552" xmlns:xlink="http://www.w3.org/1999/xlink" width="200" height="200"><path d="M467.754667 320h3.626666a21.333333 21.333333 0 0 1 21.205334 19.2L512 533.333333l138.581333 79.189334a21.333333 21.333333 0 0 1 10.752 18.517333V640a16.298667 16.298667 0 0 1-20.565333 15.701333l-197.12-53.76a21.333333 21.333333 0 0 1-15.616-22.186666l18.432-240.042667a21.333333 21.333333 0 0 1 21.290667-19.712z" p-id="46553"></path><path d="M315.306667 120.96A446.549333 446.549333 0 0 1 490.666667 85.333333C738.090667 85.333333 938.666667 285.909333 938.666667 533.333333S738.090667 981.333333 490.666667 981.333333 42.666667 780.757333 42.666667 533.333333c0-42.026667 5.802667-82.688 16.64-121.258666l82.133333 23.04A363.050667 363.050667 0 0 0 128 533.333333 362.666667 362.666667 0 1 0 490.666667 170.666667c-40.576 0-80.128 6.656-117.376 19.370666l50.773333 60.586667a21.333333 21.333333 0 0 1-15.104 34.986667l-207.658667 11.776a21.333333 21.333333 0 0 1-21.973333-26.24l48.170667-201.856a21.333333 21.333333 0 0 1 37.077333-8.789334L315.306667 120.96z" opacity=".6" p-id="46554"></path></svg>