<svg t="1717091850365" class="icon" viewBox="0 0 1024 1024" version="1.1" xmlns="http://www.w3.org/2000/svg" p-id="23608" xmlns:xlink="http://www.w3.org/1999/xlink" width="200" height="200"><path d="M464.196122 210.302375l90.509668 90.509668c1.689514 1.689514 3.469537 3.228178 5.37024 4.585824a128.042667 128.042667 0 0 0 205.818985 146.263623 128 128 0 0 0-146.293793-205.788815 42.965333 42.965333 0 0 0-4.555654-5.40041L527.040001 152.466698a256.085333 256.085333 0 0 1 329.364682 389.70446l-392.208561 392.208561a85.333333 85.333333 0 0 1-120.679557 0l-241.359115-241.359114a85.333333 85.333333 0 0 1 0-120.679558l362.038672-362.038672z" opacity=".6" p-id="23609"></path><path d="M343.516565 451.66149m30.169889 30.169889l181.019336 181.019336q30.169889 30.169889 0 60.339779l0 0q-30.169889 30.169889-60.339779 0l-181.019336-181.019336q-30.169889-30.169889 0-60.339779l0 0q30.169889-30.169889 60.339779 0Z" opacity=".6" p-id="23610"></path><path d="M253.006897 602.510937m30.169889 30.169889l120.679557 120.679557q30.169889 30.169889 0 60.339779l0 0q-30.169889 30.169889-60.339778 0l-120.679558-120.679557q-30.169889-30.169889 0-60.339779l0 0q30.169889-30.169889 60.339779 0Z" opacity=".6" p-id="23611"></path></svg>