<svg t="1717092340297" class="icon" viewBox="0 0 1024 1024" version="1.1" xmlns="http://www.w3.org/2000/svg" p-id="24047" xmlns:xlink="http://www.w3.org/1999/xlink" width="200" height="200"><path d="M938.666667 640.426667l1.066666-0.426667v195.669333a42.666667 42.666667 0 0 1-72.832 30.165334L769.066667 768H256a128 128 0 0 1-128-128V256a128 128 0 0 1 128-128h554.666667a128 128 0 0 1 128 128v384.426667z" opacity=".6" p-id="24048"></path><path d="M320 512a64 64 0 1 1 0-128 64 64 0 0 1 0 128z m213.333333 0a64 64 0 1 1 0-128 64 64 0 0 1 0 128z m213.333334 0a64 64 0 1 1 0-128 64 64 0 0 1 0 128z" opacity=".6" p-id="24049"></path></svg>