<svg t="1717091266884" class="icon" viewBox="0 0 1024 1024" version="1.1" xmlns="http://www.w3.org/2000/svg" p-id="23313" xmlns:xlink="http://www.w3.org/1999/xlink" width="200" height="200"><path d="M725.333333 170.666667m64 0l0 0q64 0 64 64l0 426.666666q0 64-64 64l0 0q-64 0-64-64l0-426.666666q0-64 64-64Z" opacity=".6" p-id="23314"></path><path d="M512 384m64 0l0 0q64 0 64 64l0 213.333333q0 64-64 64l0 0q-64 0-64-64l0-213.333333q0-64 64-64Z" opacity=".6" p-id="23315"></path><path d="M213.333333 810.666667h640a42.666667 42.666667 0 0 1 0 85.333333H170.666667a42.666667 42.666667 0 0 1-42.666667-42.666667V170.666667a42.666667 42.666667 0 1 1 85.333333 0v640z" p-id="23316"></path><path d="M298.666667 469.333333m64 0l0 0q64 0 64 64l0 128q0 64-64 64l0 0q-64 0-64-64l0-128q0-64 64-64Z" opacity=".6" p-id="23317"></path></svg>