<svg t="1717092744576" class="icon" viewBox="0 0 1024 1024" version="1.1" xmlns="http://www.w3.org/2000/svg" p-id="45527" xmlns:xlink="http://www.w3.org/1999/xlink" width="200" height="200"><path d="M109.226667 455.765333l90.538666-90.496a64 64 0 0 1 90.496 0l90.538667 90.496a64 64 0 0 1 0 90.496l-90.538667 90.538667a64 64 0 0 1-90.496 0l-90.496-90.538667a64 64 0 0 1 0-90.496z m512 0l90.538666-90.496a64 64 0 0 1 90.496 0l90.538667 90.496a64 64 0 0 1 0 90.496l-90.538667 90.538667a64 64 0 0 1-90.496 0l-90.496-90.538667a64 64 0 0 1 0-90.496z" opacity=".6" p-id="45528"></path><path d="M365.226667 711.765333l90.538666-90.496a64 64 0 0 1 90.496 0l90.538667 90.496a64 64 0 0 1 0 90.496l-90.538667 90.538667a64 64 0 0 1-90.496 0l-90.496-90.538667a64 64 0 0 1 0-90.496z m0-512l90.538666-90.496a64 64 0 0 1 90.496 0l90.538667 90.496a64 64 0 0 1 0 90.496l-90.538667 90.538667a64 64 0 0 1-90.496 0L365.269333 290.261333a64 64 0 0 1 0-90.496z" p-id="45529"></path></svg>