<svg t="1717090115857" class="icon" viewBox="0 0 1024 1024" version="1.1" xmlns="http://www.w3.org/2000/svg" p-id="22867" xmlns:xlink="http://www.w3.org/1999/xlink" width="200" height="200"><path d="M341.333333 128v21.333333A64 64 0 0 0 405.333333 213.333333h213.333334A64 64 0 0 0 682.666667 149.333333V128h85.333333a85.333333 85.333333 0 0 1 85.333333 85.333333v682.666667a85.333333 85.333333 0 0 1-85.333333 85.333333H256a85.333333 85.333333 0 0 1-85.333333-85.333333V213.333333a85.333333 85.333333 0 0 1 85.333333-85.333333h85.333333z" opacity=".6" p-id="22868"></path><path d="M469.333333 85.333333a42.666667 42.666667 0 0 1 85.333334 0h64a21.333333 21.333333 0 0 1 21.333333 21.333334v42.666666a21.333333 21.333333 0 0 1-21.333333 21.333334h-213.333334a21.333333 21.333333 0 0 1-21.333333-21.333334v-42.666666a21.333333 21.333333 0 0 1 21.333333-21.333334H469.333333z" p-id="22869"></path><path d="M426.666667 384m42.666666 0l213.333334 0q42.666667 0 42.666666 42.666667l0 0q0 42.666667-42.666666 42.666666l-213.333334 0q-42.666667 0-42.666666-42.666666l0 0q0-42.666667 42.666666-42.666667Z" opacity=".6" p-id="22870"></path><path d="M298.666667 384m42.666666 0l0 0q42.666667 0 42.666667 42.666667l0 0q0 42.666667-42.666667 42.666666l0 0q-42.666667 0-42.666666-42.666666l0 0q0-42.666667 42.666666-42.666667Z" opacity=".6" p-id="22871"></path><path d="M298.666667 554.666667m42.666666 0l0 0q42.666667 0 42.666667 42.666666l0 0q0 42.666667-42.666667 42.666667l0 0q-42.666667 0-42.666666-42.666667l0 0q0-42.666667 42.666666-42.666666Z" opacity=".6" p-id="22872"></path><path d="M426.666667 554.666667m42.666666 0l213.333334 0q42.666667 0 42.666666 42.666666l0 0q0 42.666667-42.666666 42.666667l-213.333334 0q-42.666667 0-42.666666-42.666667l0 0q0-42.666667 42.666666-42.666666Z" opacity=".6" p-id="22873"></path><path d="M298.666667 725.333333m42.666666 0l0 0q42.666667 0 42.666667 42.666667l0 0q0 42.666667-42.666667 42.666667l0 0q-42.666667 0-42.666666-42.666667l0 0q0-42.666667 42.666666-42.666667Z" opacity=".6" p-id="22874"></path><path d="M426.666667 725.333333m42.666666 0l213.333334 0q42.666667 0 42.666666 42.666667l0 0q0 42.666667-42.666666 42.666667l-213.333334 0q-42.666667 0-42.666666-42.666667l0 0q0-42.666667 42.666666-42.666667Z" opacity=".6" p-id="22875"></path></svg>