<svg t="1717093166291" class="icon" viewBox="0 0 1024 1024" version="1.1" xmlns="http://www.w3.org/2000/svg" p-id="45965" xmlns:xlink="http://www.w3.org/1999/xlink" width="200" height="200"><path d="M170.666667 412.8l293.546666 169.472a37.973333 37.973333 0 0 0 9.856 3.968v328.704l-282.453333-167.168a42.666667 42.666667 0 0 1-20.949333-36.693333V412.8z m682.666666-4.522667v302.805334a42.666667 42.666667 0 0 1-20.906666 36.693333l-282.496 167.168v-331.562667a38.528 38.528 0 0 0 2.048-1.109333L853.333333 408.277333z" p-id="45966"></path><path d="M179.882667 330.538667a42.624 42.624 0 0 1 13.397333-11.178667l298.666667-159.061333a42.666667 42.666667 0 0 1 40.106666 0l298.666667 159.061333c4.053333 2.133333 7.68 4.949333 10.794667 8.149333l-327.466667 189.056a38.101333 38.101333 0 0 0-5.973333 4.266667 38.101333 38.101333 0 0 0-5.930667-4.266667l-322.261333-186.026666z" opacity=".6" p-id="45967"></path></svg>