<?xml version="1.0" encoding="utf-8"?>
<!-- Generator: Adobe Illustrator 22.1.0, SVG Export Plug-In . SVG Version: 6.00 Build 0)  -->
<svg version="1.1" id="图层_1" xmlns="http://www.w3.org/2000/svg" xmlns:xlink="http://www.w3.org/1999/xlink" x="0px" y="0px"
	 viewBox="0 0 200 200" style="enable-background:new 0 0 200 200;" xml:space="preserve">
<path d="M189,76c0-0.2,0-0.4,0-0.6V35.9c0-7.9-6.4-14.2-14.2-14.2h-28.5v-7.1l0-0.5c-0.3-3.7-3.4-6.6-7.1-6.6h0
	c-3.9,0-7.1,3.2-7.1,7.1v7.1H68v-7.1l0-0.5c-0.3-3.7-3.4-6.6-7.1-6.6c-3.9,0-7.1,3.2-7.1,7.1v7.1H25.3c-7.9,0-14.2,6.4-14.2,14.2
	v142.4c0,7.9,6.4,14.2,14.2,14.2h149.5c7.9,0,14.2-6.4,14.2-14.2V76.7C189,76.5,189,76.3,189,76z M53.7,35.9v7.1l0,0.5
	c0.3,3.7,3.4,6.6,7.1,6.6c3.9,0,7.1-3.2,7.1-7.1v-7.1H132v7.1l0,0.5c0.3,3.7,3.4,6.6,7.1,6.6c3.9,0,7.1-3.2,7.1-7.1v-7.1h28.5v33
	H25.3v-33H53.7z M25.3,178.3V83.2h149.5v95.1H25.3z"/>
<path d="M107.1,156.9H92.9v-53.4h7.1c3.9,0,7.1,3.2,7.1,7.1L107.1,156.9L107.1,156.9z"/>
</svg>
