<?xml version="1.0" standalone="no"?><!DOCTYPE svg PUBLIC "-//W3C//DTD SVG 1.1//EN" "http://www.w3.org/Graphics/SVG/1.1/DTD/svg11.dtd"><svg t="1717600903485" class="icon" viewBox="0 0 1024 1024" version="1.1" xmlns="http://www.w3.org/2000/svg" p-id="21861" xmlns:xlink="http://www.w3.org/1999/xlink" width="200" height="200"><path d="M512 194.645333L331.434667 411.306667a42.666667 42.666667 0 1 1-65.536-54.613334l213.333333-256a42.666667 42.666667 0 0 1 65.536 0l213.333333 256a42.666667 42.666667 0 1 1-65.536 54.613334L512 194.645333z" opacity=".3" p-id="21862"></path><path d="M139.946667 384h744.106666a42.666667 42.666667 0 0 1 41.386667 53.034667l-90.538667 362.026666A128 128 0 0 1 710.741333 896H313.258667a128 128 0 0 1-124.16-96.938667L98.56 437.034667A42.666667 42.666667 0 0 1 139.946667 384zM512 512a42.666667 42.666667 0 0 0-42.666667 42.666667v170.666666a42.666667 42.666667 0 0 0 85.333334 0v-170.666666a42.666667 42.666667 0 0 0-42.666667-42.666667z m-214.826667 5.802667a42.666667 42.666667 0 0 0-30.165333 52.266666l44.16 164.864a42.666667 42.666667 0 1 0 82.432-22.101333l-44.202667-164.864a42.666667 42.666667 0 0 0-52.224-30.165333z m429.653334 0a42.666667 42.666667 0 0 0-52.224 30.165333l-44.202667 164.864a42.666667 42.666667 0 0 0 82.432 22.101333l44.16-164.864a42.666667 42.666667 0 0 0-30.165333-52.266666z" p-id="21863"></path></svg>