<?xml version="1.0" encoding="utf-8"?>
<!-- Generator: Adobe Illustrator 22.1.0, SVG Export Plug-In . SVG Version: 6.00 Build 0)  -->
<svg version="1.1" id="图层_1" xmlns="http://www.w3.org/2000/svg" xmlns:xlink="http://www.w3.org/1999/xlink" x="0px" y="0px"
	 viewBox="0 0 200 200" style="enable-background:new 0 0 200 200;" xml:space="preserve">
<path d="M174.8,46.6L108.5,8.3c-2.7-1.5-5.8-2.3-9-2.3c-3.1,0-6.2,0.8-9,2.3L24.9,46.6c-5.4,3.1-8.8,8.8-9,15v76.6
	c0.1,6.3,3.5,12,9,15.1l66.4,38.3c5.4,3,12,3,17.4,0l66.3-38.3c5.4-3.1,8.8-8.9,9-15.1V61.7C183.8,55.4,180.3,49.7,174.8,46.6
	L174.8,46.6z M169.9,138.3c0,1.4-0.7,2.6-1.9,3.3l-66.3,38.3c-1.2,0.7-2.6,0.7-3.8,0l-66.4-38.3c-1.2-0.7-1.9-2-1.9-3.3V61.7
	c0-1.3,0.7-2.6,1.9-3.2l66.4-38.3c1.2-0.7,2.6-0.7,3.8,0l66.5,38.3c1.2,0.7,1.9,1.9,1.9,3.2L169.9,138.3z"/>
<path d="M145.9,68c-1.7-0.5-3.6-0.2-5.2,0.6L100.3,92L55.6,66.4c-1.1-0.7-2.4-1-3.8-0.9H50c-1.6,0.5-3,1.7-3.8,3.1
	c-0.9,1.6-1.1,3.4-0.6,5.2c0.4,1.8,1.6,3.3,3.2,4.1l44.8,25.6v45.6c0,3.7,2.9,6.8,6.6,6.8c0.1,0,0.1,0,0.2,0c3.8,0,6.8-3,6.9-6.7
	c0,0,0,0,0,0v-45.5h0.4l39.9-23.2c1.6-0.9,2.7-2.4,3.2-4.1c0.6-1.8,0.4-3.8-0.5-5.5C149.3,69.5,147.7,68.4,145.9,68L145.9,68z"/>
</svg>
